# xmcd CD database file
#
# Track frame offsets:
#	150
#	21952
#	50239
#	72041
#
# Disc length: 1334 seconds
#
# Revision: 4
# Processed by: cddbd v1.5.2PL0 Copyright (c) Steve Scherf et al.
# Submitted via: CDex 1.70beta2
#
DISCID=33053404
DTITLE=GRANRODEO - tRANCE
DYEAR=2009
DGENRE=Anime
TTITLE0=tRANCE
TTITLE1=ネジレタユガミ
TTITLE2=tRANCE (OFF VOCAL)
TTITLE3=ネジレタユガミ (OFF VOCAL)
EXTD=YEAR: 2009
EXTT0=
EXTT1=
EXTT2=
EXTT3=
PLAYORDER=
